<?xml version="1.0" encoding="UTF-8" standalone="no"?>
<svg
   xmlns:dc="http://purl.org/dc/elements/1.1/"
   xmlns:cc="http://creativecommons.org/ns#"
   xmlns:rdf="http://www.w3.org/1999/02/22-rdf-syntax-ns#"
   xmlns:svg="http://www.w3.org/2000/svg"
   xmlns="http://www.w3.org/2000/svg"
   xmlns:sodipodi="http://sodipodi.sourceforge.net/DTD/sodipodi-0.dtd"
   xmlns:inkscape="http://www.inkscape.org/namespaces/inkscape"
   version="1.1"
   x="0px"
   y="0px"
   width="123.87437"
   height="134.6676"
   viewBox="0 0 123.87437 134.6676"
   enable-background="new 0 0 100 100"
   xml:space="preserve"
   id="svg3075"
   inkscape:version="0.48.4 r9939"
   sodipodi:docname="icon_17483.svg"><metadata
     id="metadata3085"><rdf:RDF><cc:Work
         rdf:about=""><dc:format>image/svg+xml</dc:format><dc:type
           rdf:resource="http://purl.org/dc/dcmitype/StillImage" /><dc:title></dc:title></cc:Work></rdf:RDF></metadata><defs
     id="defs3083" /><sodipodi:namedview
     pagecolor="#ffffff"
     bordercolor="#666666"
     borderopacity="1"
     objecttolerance="10"
     gridtolerance="10"
     guidetolerance="10"
     inkscape:pageopacity="0"
     inkscape:pageshadow="2"
     inkscape:window-width="1559"
     inkscape:window-height="876"
     id="namedview3081"
     showgrid="false"
     fit-margin-top="5"
     fit-margin-left="5"
     fit-margin-right="5"
     fit-margin-bottom="5"
     inkscape:zoom="3.645"
     inkscape:cx="55.630217"
     inkscape:cy="53.685043"
     inkscape:window-x="41"
     inkscape:window-y="24"
     inkscape:window-maximized="1"
     inkscape:current-layer="svg3075" /><g
     id="Captions"
     transform="translate(-38.062813,77.158573)" /><g
     id="Your_Icon"
     transform="translate(11.594251,21.933464)"><path
       d="m 79.173,81.304 c -1.393,0.736 -4.841,2.994 -5.478,2.159 -1.685,-2.206 -5.001,-6.32 -5.902,-7.718 -1.133,-1.754 -1.363,-3.258 -0.987,-4.19 0.648,-1.611 1.184,-2.731 1.564,-3.459 L 60.746,59.612 C 38.327,63.805 8.826,62.076 0.285,54.095 -3.153,50.882 25.448,42.715 42.26,39.047 l -5.529,-6.15 c -1.405,-0.088 -3.987,-0.271 -5.446,-0.511 -2.068,-0.339 -3.404,-2.328 -4.247,-3.628 -1.088,-1.678 -3.215,-5.333 -3.902,-6.239 -0.69,-0.906 2.294,-3.205 3.787,-3.886 1.488,-0.681 5.348,-2.871 6.084,-2.125 1.398,1.42 3.978,4.505 6.051,7.63 1.007,1.513 1.302,3.134 0.84,4.278 -0.462,1.149 -0.865,2.036 -1.196,2.722 l 32.119,35.737 c 1.383,0.14 3.691,0.56 4.596,0.71 2.068,0.339 3.33,2.38 4.249,3.631 0.919,1.245 3.479,5.055 4.166,5.961 0.689,0.906 -3.21,3.357 -4.659,4.127 z M 35.654,46.421 c 0.354,2.349 7.081,3.294 15.222,2.211 l -6.799,-7.561 c -5.208,1.498 -8.69,3.572 -8.423,5.35 z M 65.123,58.698 55.371,47.845 c 6.779,-1.486 11.618,-3.999 11.304,-6.089 -0.368,-2.439 -7.609,-3.373 -16.177,-2.086 -0.732,0.11 -1.442,0.238 -2.143,0.374 l -1.707,-1.901 c 1.143,-0.222 2.188,-0.408 3.103,-0.556 13.353,-2.122 51.836,-4.691 50.197,-1.414 -2.642,5.291 -13.465,17.432 -34.825,22.525 z"
       id="path3079"
       inkscape:connector-curvature="0" /></g><text
     xml:space="preserve"
     style="font-size:40px;font-style:normal;font-weight:normal;line-height:125%;letter-spacing:0px;word-spacing:0px;fill:#000000;fill-opacity:1;stroke:none;font-family:Sans"
     id="text3087"
     sodipodi:linespacing="125%"
     y="35.400002"
     x="6.389061"><tspan
       sodipodi:role="line"
       id="tspan3089"
       x="6.389061"
       y="35.400002"
       style="font-style:normal;font-variant:normal;font-weight:normal;font-stretch:normal;font-family:Ubuntu;-inkscape-font-specification:Ubuntu">I'm on</tspan></text>
<text
     xml:space="preserve"
     style="font-size:40px;font-style:normal;font-weight:normal;line-height:125%;letter-spacing:0px;word-spacing:0px;fill:#000000;fill-opacity:1;stroke:none;font-family:Sans"
     id="text3091"
     sodipodi:linespacing="125%"
     y="129.1476"
     x="3.2799988"><tspan
       sodipodi:role="line"
       id="tspan3093"
       x="3.2799988"
       y="129.1476"
       style="font-style:normal;font-variant:normal;font-weight:normal;font-stretch:normal;font-family:Ubuntu;-inkscape-font-specification:Ubuntu">a Boat</tspan></text>
</svg>